<svg width="803" height="526" viewBox="0 0 803 526" fill="none" xmlns="http://www.w3.org/2000/svg">
<path d="M299.973 0.00213683C210.881 0.45848 154.348 31.498 93.1156 96.2151C15.3992 178.355 -24.0981 269.392 15.7079 375.233C45.2648 453.822 89.8742 504.822 171.835 523.051C264.544 543.669 303.053 407.477 395.749 428.15C435.185 436.945 449.364 463.203 488.026 474.944C592.06 506.537 694.78 507.983 761.358 422.027C807.428 362.548 806.676 307.243 796.782 232.662C786.556 155.583 771.821 99.2727 708.441 54.2312C630.898 -0.875137 558.34 71.8025 464.847 54.2312C398.233 41.7115 367.753 -0.345041 299.973 0.00213683Z" fill="#FFAB40"/>
<path d="M164.5 212.367V327.25H637V212.367L585.515 192.202L580.75 190.336V185.219V158.5H220.75V185.219V190.336L215.985 192.202L164.5 212.367Z" stroke="white" stroke-width="15"/>
<path d="M587.958 248.478L608.5 262.626V298.938H400.75V248.478M587.958 248.478H400.75M587.958 248.478L593.059 191.011M400.75 248.478V156.438" stroke="white" stroke-width="15"/>
<path d="M213.542 248.478L193 262.626V298.938H400.75V248.478M213.542 248.478H400.75M213.542 248.478L208.441 191.011M400.75 248.478V156.438" stroke="white" stroke-width="15"/>
<path d="M614.5 325.75L604.365 372.625L595.75 325.75" stroke="white" stroke-width="15"/>
<path d="M205.75 325.75L195.615 372.625L187 325.75" stroke="white" stroke-width="15"/>
<path d="M339 282C339 293.046 367.654 282 403 282C438.346 282 467 293.046 467 282C467 270.954 438.346 262 403 262C367.654 262 339 270.954 339 282Z" fill="#3ADE63"/>
<ellipse cx="32" cy="20" rx="32" ry="20" transform="matrix(-1 0 0 1 502 188)" fill="#3ADE63"/>
<ellipse cx="32" cy="20" rx="32" ry="20" transform="matrix(-1 0 0 1 363 188)" fill="#3ADE63"/>
</svg>
