<svg width="32" height="63" viewBox="0 0 32 63" fill="none" xmlns="http://www.w3.org/2000/svg">
<path fill-rule="evenodd" clip-rule="evenodd" d="M0 15V63H32V15L17 0H15L0 15ZM16 10C17.6569 10 19 8.65685 19 7C19 5.34315 17.6569 4 16 4C14.3431 4 13 5.34315 13 7C13 8.65685 14.3431 10 16 10Z" fill="#0A6191"/>
<path d="M10.2388 25L8.25018 17.7273H9.14506L10.665 23.6506H10.736L12.2843 17.7273H13.2786L14.8269 23.6506H14.8979L16.4178 17.7273H17.3127L15.324 25H14.415L12.8098 19.2045H12.753L11.1479 25H10.2388ZM23.4205 20H22.5398C22.4877 19.7467 22.3965 19.5241 22.2663 19.3324C22.1385 19.1406 21.9822 18.9796 21.7976 18.8494C21.6153 18.7169 21.4129 18.6174 21.1903 18.5511C20.9678 18.4848 20.7358 18.4517 20.4943 18.4517C20.054 18.4517 19.6551 18.563 19.2976 18.7855C18.9425 19.008 18.6596 19.3359 18.4489 19.7692C18.2405 20.2024 18.1364 20.7339 18.1364 21.3636C18.1364 21.9934 18.2405 22.5249 18.4489 22.9581C18.6596 23.3913 18.9425 23.7192 19.2976 23.9418C19.6551 24.1643 20.054 24.2756 20.4943 24.2756C20.7358 24.2756 20.9678 24.2424 21.1903 24.1761C21.4129 24.1098 21.6153 24.0116 21.7976 23.8814C21.9822 23.7488 22.1385 23.5866 22.2663 23.3949C22.3965 23.2008 22.4877 22.9782 22.5398 22.7273H23.4205C23.3542 23.099 23.2334 23.4316 23.0582 23.7251C22.883 24.0187 22.6652 24.2685 22.4048 24.4744C22.1444 24.678 21.852 24.8331 21.5277 24.9396C21.2057 25.0462 20.8613 25.0994 20.4943 25.0994C19.8741 25.0994 19.3224 24.9479 18.8395 24.6449C18.3565 24.3419 17.9766 23.911 17.6996 23.3523C17.4226 22.7936 17.2841 22.1307 17.2841 21.3636C17.2841 20.5966 17.4226 19.9337 17.6996 19.375C17.9766 18.8163 18.3565 18.3854 18.8395 18.0824C19.3224 17.7794 19.8741 17.6278 20.4943 17.6278C20.8613 17.6278 21.2057 17.6811 21.5277 17.7876C21.852 17.8942 22.1444 18.0504 22.4048 18.2564C22.6652 18.46 22.883 18.7086 23.0582 19.0021C23.2334 19.2933 23.3542 19.6259 23.4205 20Z" fill="#FFAB40"/>
<ellipse cx="11.5" cy="37" rx="2" ry="5" fill="white"/>
<ellipse cx="21.5" cy="37" rx="2" ry="5" fill="white"/>
<path d="M7 55C7 55 9.84498 50.0132 13 49C17.7398 47.4779 24.5 54.5 24.5 54.5" stroke="white" stroke-width="2"/>
</svg>
